<svg xmlns="http://www.w3.org/2000/svg" width="32" height="32" viewBox="0 0 32 32"><defs><style>.a{fill:#cecfd6;}.b{fill:#fff;}</style></defs><g transform="translate(-175 -127)"><rect class="a" width="32" height="32" rx="4" transform="translate(175 127)"/><g transform="translate(179.618 85.752)"><g transform="translate(0 48)"><path class="b" d="M22.053,60.8H20.63V57.248a.712.712,0,0,0-.711-.711H12.093V53.691h1.423a.712.712,0,0,0,.711-.711V48.711A.712.712,0,0,0,13.516,48H9.248a.712.712,0,0,0-.711.711V52.98a.712.712,0,0,0,.711.711h1.423v2.846H2.846a.712.712,0,0,0-.711.711V60.8H.711A.712.712,0,0,0,0,61.516v4.268a.712.712,0,0,0,.711.711H4.98a.712.712,0,0,0,.711-.711V61.516A.712.712,0,0,0,4.98,60.8H3.557V57.959h7.114V60.8H9.248a.712.712,0,0,0-.711.711v4.268a.712.712,0,0,0,.711.711h4.268a.712.712,0,0,0,.711-.711V61.516a.712.712,0,0,0-.711-.711H12.093V57.959h7.114V60.8H17.785a.712.712,0,0,0-.711.711v4.268a.712.712,0,0,0,.711.711h4.268a.712.712,0,0,0,.711-.711V61.516A.712.712,0,0,0,22.053,60.8Z" transform="translate(0 -48)"/></g></g></g></svg>