<svg xmlns="http://www.w3.org/2000/svg" width="38" height="38" viewBox="0 0 38 38"><defs><style>.a{fill:#fff;}</style></defs><g transform="translate(-16 -16)"><path class="a" d="M13.817,16.169,0,2.352V35.789L13.817,21.831a3.56,3.56,0,0,1-.366-.732L0,24.69V22.775l13.113-3.366a2,2,0,0,1,0-.817L0,15.225V13.31L13.451,16.9a2.971,2.971,0,0,1,.366-.732m11,1.648H38V0H.1L14.859,14.746a5.929,5.929,0,0,1,9.958,3.07M38,38V20.183H24.817a5.931,5.931,0,0,1-9.958,3.056L.1,38H38Z" transform="translate(16 16)"/></g></svg>